<?xml version="1.0" encoding="UTF-8" standalone="no"?>
<!-- Created with Inkscape (http://www.inkscape.org/) -->

<svg
   xmlns:dc="http://purl.org/dc/elements/1.1/"
   xmlns:cc="http://creativecommons.org/ns#"
   xmlns:rdf="http://www.w3.org/1999/02/22-rdf-syntax-ns#"
   xmlns:svg="http://www.w3.org/2000/svg"
   xmlns="http://www.w3.org/2000/svg"
   xmlns:sodipodi="http://sodipodi.sourceforge.net/DTD/sodipodi-0.dtd"
   xmlns:inkscape="http://www.inkscape.org/namespaces/inkscape"
   width="591"
   height="591"
   id="svg2"
   version="1.1"
   inkscape:version="0.47 r22583"
   sodipodi:docname="cain.svg">
  <defs
     id="defs4">
    <inkscape:perspective
       sodipodi:type="inkscape:persp3d"
       inkscape:vp_x="0 : 526.18109 : 1"
       inkscape:vp_y="0 : 1000 : 0"
       inkscape:vp_z="744.09448 : 526.18109 : 1"
       inkscape:persp3d-origin="372.04724 : 350.78739 : 1"
       id="perspective10" />
  </defs>
  <sodipodi:namedview
     id="base"
     pagecolor="#ffffff"
     bordercolor="#666666"
     borderopacity="1.0"
     inkscape:pageopacity="0.0"
     inkscape:pageshadow="2"
     inkscape:zoom="1"
     inkscape:cx="287.62954"
     inkscape:cy="312.06824"
     inkscape:document-units="px"
     inkscape:current-layer="layer1"
     showgrid="false"
     inkscape:window-width="1920"
     inkscape:window-height="1153"
     inkscape:window-x="-4"
     inkscape:window-y="-4"
     inkscape:window-maximized="1"
     inkscape:showpageshadow="false"
     showborder="false" />
  <metadata
     id="metadata7">
    <rdf:RDF>
      <cc:Work
         rdf:about="">
        <dc:format>image/svg+xml</dc:format>
        <dc:type
           rdf:resource="http://purl.org/dc/dcmitype/StillImage" />
        <dc:title></dc:title>
      </cc:Work>
    </rdf:RDF>
  </metadata>
  <g
     inkscape:label="Layer 1"
     inkscape:groupmode="layer"
     id="layer1"
     transform="translate(-76.547241,-230.68109)">
    <g
       id="g3639">
      <rect
         y="230.68109"
         x="76.547241"
         height="591"
         width="591"
         id="rect3637"
         style="color:#000000;fill:none;fill-opacity:1;fill-rule:nonzero;stroke:none;stroke-width:8;marker:none;visibility:visible;display:inline;overflow:visible;enable-background:accumulate" />
      <path
         id="path2825"
         d="m 372.79724,251.99359 c -13.12535,8.1e-4 -23.43783,4.68831 -30.9375,14.0625 -9.37532,10.31329 -14.06281,25.31327 -14.0625,45 -3.1e-4,9.37574 0.93719,20.62573 2.8125,33.75 1.87468,7.50071 5.15593,19.6882 9.84375,36.5625 6.56217,26.25066 11.24966,46.87564 14.0625,61.875 2.58525,18.74514 4.25952,37.26356 5.0625,55.5625 -12.84113,-13.63389 -24.73212,-28.22957 -35.6875,-43.75 -8.61768,-12.59462 -19.89113,-31.12775 -33.8125,-55.65625 -7.95473,-14.5833 -14.26565,-25.51968 -18.90625,-32.8125 -6.6289,-10.6058 -12.90855,-18.90798 -18.875,-24.875 -13.92091,-13.92034 -27.85981,-21.21124 -41.78125,-21.875 -12.59503,-0.66207 -23.19433,3.32047 -31.8125,11.9375 -9.28045,9.28159 -13.26299,19.88088 -11.9375,31.8125 0.66324,13.92195 7.95416,27.86085 21.875,41.78125 6.62943,6.62987 15.26869,13.92079 25.875,21.875 6.6294,3.97821 17.56578,10.25786 32.8125,18.875 23.20218,13.92187 41.09238,25.19533 53.6875,33.8125 15.08547,11.42875 29.36584,23.34494 42.875,35.71875 -18.72251,-0.56036 -37.46443,-2.4592 -56.1875,-5.6875 -14.99936,-2.81212 -36.09309,-7.96837 -63.28125,-15.46875 -15.9368,-4.68711 -28.12429,-7.96835 -36.5625,-9.84375 -12.18677,-2.8121 -22.49926,-4.21835 -30.9375,-4.21875 -19.68673,4e-4 -34.68671,4.6879 -45,14.0625 -9.37419,8.43788 -14.061689,18.75037 -14.062499,30.9375 8.1e-4,13.12535 4.688309,23.43783 14.062499,30.9375 10.31329,9.37532 25.31327,14.06281 45,14.0625 9.37574,3.1e-4 20.62573,-0.93719 33.75,-2.8125 7.50071,-1.87468 19.6882,-5.15593 36.5625,-9.84375 26.25066,-6.56217 46.87564,-11.24966 61.875,-14.0625 18.74514,-2.58525 37.26356,-4.25952 55.5625,-5.0625 -13.63397,12.84123 -28.19822,24.76331 -43.71875,35.71875 -12.59462,8.61768 -31.159,19.85988 -55.6875,33.78125 -14.58331,7.95473 -25.51967,14.26564 -32.8125,18.90625 -10.6058,6.62889 -18.90798,12.93979 -24.875,18.90625 -13.92034,13.9209 -21.21125,27.82856 -21.875,41.75 -0.66208,12.59504 3.32047,23.19432 11.9375,31.8125 9.2816,9.28045 19.88088,13.26299 31.8125,11.9375 13.92195,-0.66324 27.86085,-7.95416 41.78125,-21.875 6.62987,-6.62943 13.92078,-15.23744 21.875,-25.84375 3.9782,-6.6294 10.25785,-17.56578 18.875,-32.8125 13.92186,-23.20217 25.19533,-41.12362 33.8125,-53.71875 11.42642,-15.0824 23.34765,-29.33702 35.71875,-42.84375 -0.56036,18.72251 -2.4592,37.43318 -5.6875,56.15625 -2.81212,14.99936 -7.96837,36.09309 -15.46875,63.28125 -4.68711,15.9368 -7.96835,28.12429 -9.84375,36.5625 -2.8121,12.18677 -4.21835,22.49926 -4.21875,30.9375 4e-4,19.68673 4.6879,34.68671 14.0625,45 8.43788,9.37419 18.75037,14.06169 30.9375,14.0625 13.12535,-8.1e-4 23.43783,-4.68831 30.9375,-14.0625 9.37532,-10.31329 14.06281,-25.31327 14.0625,-45 3.1e-4,-9.37574 -0.93719,-20.62573 -2.8125,-33.75 -1.87468,-7.50071 -5.15593,-19.6882 -9.84375,-36.5625 -6.56217,-26.25066 -11.24966,-46.87564 -14.0625,-61.875 -2.58525,-18.74514 -4.22827,-37.26356 -5.03125,-55.5625 12.84113,13.63389 24.73212,28.22957 35.6875,43.75 8.61768,12.59461 19.89114,31.12775 33.8125,55.65625 7.95473,14.58331 14.23439,25.55092 18.875,32.84375 6.62889,10.6058 12.9398,18.87673 18.90625,24.84375 13.9209,13.92034 27.82856,21.21124 41.75,21.875 12.59504,0.66207 23.22557,-3.32047 31.84375,-11.9375 9.28045,-9.2816 13.23173,-19.88087 11.90625,-31.8125 -0.66325,-13.92195 -7.95416,-27.8296 -21.875,-41.75 -6.62943,-6.62987 -15.23745,-13.92078 -25.84375,-21.875 -6.6294,-3.9782 -17.56577,-10.28911 -32.8125,-18.90625 -23.20217,-13.92187 -41.09237,-25.19533 -53.6875,-33.8125 -15.0824,-11.42642 -29.36827,-23.34765 -42.875,-35.71875 18.72251,0.56036 37.43319,2.4592 56.15625,5.6875 14.99936,2.81212 36.09309,7.96837 63.28125,15.46875 15.9368,4.68711 28.12429,7.96835 36.5625,9.84375 12.18677,2.8121 22.49926,4.21835 30.9375,4.21875 19.68673,-4e-4 34.68671,-4.6879 45,-14.0625 9.37419,-8.43788 14.06169,-18.75037 14.0625,-30.9375 -8.1e-4,-13.12535 -4.68831,-23.43783 -14.0625,-30.9375 -10.31329,-9.37532 -25.31327,-14.06281 -45,-14.0625 -9.37574,-3.1e-4 -20.62573,0.93719 -33.75,2.8125 -7.50071,1.87468 -19.6882,5.15593 -36.5625,9.84375 -26.25066,6.56217 -46.87564,11.24966 -61.875,14.0625 -18.73965,2.58449 -37.23754,4.25923 -55.53125,5.0625 13.63388,-12.84112 28.19834,-24.76338 43.71875,-35.71875 12.59462,-8.61768 31.159,-19.85989 55.6875,-33.78125 14.58331,-7.95473 25.51968,-14.26564 32.8125,-18.90625 10.60581,-6.62889 18.87673,-12.9398 24.84375,-18.90625 13.92033,-13.9209 21.21125,-27.82856 21.875,-41.75 0.66207,-12.59504 -3.28922,-23.19432 -11.90625,-31.8125 -9.2816,-9.28045 -19.91213,-13.26298 -31.84375,-11.9375 -13.92195,0.66325 -27.8296,7.95416 -41.75,21.875 -6.62987,6.62943 -13.92078,15.23745 -21.875,25.84375 -3.9782,6.6294 -10.2891,17.56577 -18.90625,32.8125 -13.92186,23.20217 -25.19533,41.12362 -33.8125,53.71875 -11.42416,15.07942 -23.31903,29.33938 -35.6875,42.84375 0.56036,-18.72251 2.42795,-37.43318 5.65625,-56.15625 2.81212,-14.99936 7.96837,-36.09309 15.46875,-63.28125 4.68711,-15.9368 7.96835,-28.12429 9.84375,-36.5625 2.8121,-12.18677 4.21835,-22.49926 4.21875,-30.9375 -4e-4,-19.68673 -4.6879,-34.68671 -14.0625,-45 -8.43788,-9.37419 -18.75037,-14.06169 -30.9375,-14.0625 z"
         style="font-size:1440px;font-style:normal;font-variant:normal;font-weight:normal;font-stretch:normal;text-align:center;line-height:100%;writing-mode:lr-tb;text-anchor:middle;fill:#ffff00;fill-opacity:1;stroke:none;font-family:Batang;-inkscape-font-specification:Batang" />
    </g>
  </g>
</svg>
